<svg xmlns="http://www.w3.org/2000/svg" viewBox="0 0 137 51">
  <defs/>
  <g fill="none" fill-rule="evenodd">
    <path d="M0 0h137v51H0z"/>
    <g fill="#FFF" fill-rule="nonzero">
      <path d="M48.4 32l1.3-4.2h5.8l1.2 4.2H61l-5.2-15.8c-.3-.9-.5-1-1.4-1h-3.2c-.9 0-1 .1-1.4 1L44.5 32h4zm6.2-7.1h-4l1.8-6.2h.3l2 6.2zM70.7 32c1.3 0 2-.2 2.4-.8.7-.7.9-1.6.9-4.2h-3.4c0 1.4 0 1.7-.2 1.9-.2.1-.4.2-1 .2h-2c-.6 0-.8 0-1-.2-.2-.2-.3-.6-.3-3.2v-.3c0-2.8.1-3.3.3-3.5.2-.1.4-.2 1-.2h2c.6 0 .8 0 1 .2l.2 1.7H74c0-2.4-.2-3.4-1-4-.4-.6-1-.8-2.3-.8h-4.4c-1.4 0-2 .2-2.6.8-.9.9-1.2 2-1.2 5.5v.3c0 3.7.3 5 1.2 5.8.5.6 1.2.8 2.6.8h4.4zm9.7 0v-9.7c.8-.4 1.4-.6 2-.6h.6c.7 0 1 .1 1.1.3.2.2.3.5.3 1.1V32h3.7v-9.8c.8-.4 1.4-.5 2-.5h.6c.6 0 .9.1 1 .3.3.2.4.5.4 1.1V32h3.7v-9.3c0-2-.2-2.7-.8-3.2-.5-.5-1.2-.7-2.3-.7h-1.2c-1.2 0-1.8.2-3.6 1.9 0-.6-.3-.9-.6-1.2-.5-.5-1.2-.7-2.3-.7h-1.2c-1.2 0-1.7.2-3.4 1.8v-1.8h-3.7V32h3.7zm27 0c1.3 0 1.9-.4 2.3-.8.6-.6.8-1.6.9-3.6h-3.4c0 1-.1 1.3-.2 1.4-.2.2-.4.3-1.1.3h-2.2c-.7 0-1 0-1.2-.3-.2-.1-.3-.7-.3-2.8h7.8c.5 0 .6-.1.6-.5v-.4c0-3.8-.2-4.8-1.1-5.7-.6-.6-1.3-.8-2.6-.8h-4.5c-1.3 0-2 .2-2.6.8-.8.9-1.2 1.9-1.2 5.5v.3c0 3.9.3 5 1.2 5.8.6.6 1.3.8 2.6.8h5zm-.3-7.8h-5c.1-1.9.2-2.3.4-2.4.2-.2.5-.3 1.2-.3h2c.7 0 1 0 1 .2.2.2.4.7.4 2.5zM36.6 22.7h-7.8l1.5-9.2c0-.2-.1-.4-.3-.5-.1 0-.3 0-.4.2L18 27.7c-.1 0-.1.3 0 .4 0 .1.1.2.3.2h7.8l-1.5 9.2c0 .2.1.4.3.5h.1c.1 0 .3 0 .3-.2L37 23.3c.1 0 .1-.3 0-.4 0-.1-.1-.2-.3-.2z"/>
    </g>
  </g>
</svg>
