<svg xmlns="http://www.w3.org/2000/svg" width="27" height="23" viewBox="0 0 27 23">
    <path fill="#FFF" fill-rule="nonzero" d="M27 3.213c-.993.43-2.06.722-3.182.852a5.455 5.455 0 0 0 2.436-2.996 11.245 11.245 0 0 1-3.517 1.314 5.591 5.591 0 0 0-4.044-1.71c-3.06 0-5.54 2.425-5.54 5.416 0 .425.05.838.144 1.234A15.847 15.847 0 0 1 1.88 1.664a5.3 5.3 0 0 0-.75 2.723c0 1.88.978 3.537 2.464 4.508a5.613 5.613 0 0 1-2.51-.677v.068c0 2.624 1.91 4.813 4.444 5.311a5.669 5.669 0 0 1-2.502.093c.705 2.152 2.751 3.718 5.175 3.761a11.276 11.276 0 0 1-6.88 2.319c-.447 0-.888-.026-1.321-.076a15.939 15.939 0 0 0 8.491 2.434c10.19 0 15.761-8.254 15.761-15.411 0-.235-.005-.468-.016-.7A11.123 11.123 0 0 0 27 3.212z"/>
</svg>
