<svg xmlns="http://www.w3.org/2000/svg" width="27" height="20" viewBox="0 0 27 20">
    <g fill="none" fill-rule="nonzero">
        <path fill="#FFF" d="M26.73 4.537s-.263-1.848-1.073-2.662C24.63.806 23.479.8 22.952.739 19.173.467 13.506.467 13.506.467h-.012s-5.667 0-9.446.272C3.52.8 2.37.806 1.343 1.875.533 2.689.27 4.537.27 4.537S0 6.707 0 8.878v2.035c0 2.171.27 4.342.27 4.342s.263 1.848 1.073 2.662c1.027 1.069 2.376 1.035 2.977 1.147 2.16.206 9.18.27 9.18.27s5.673-.01 9.452-.28c.527-.063 1.678-.068 2.705-1.137.81-.814 1.073-2.662 1.073-2.662s.27-2.17.27-4.342V8.878c0-2.17-.27-4.34-.27-4.34z"/>
        <path fill="#204C67" d="M10.713 13.38l-.002-7.537 7.296 3.781z"/>
    </g>
</svg>
