<svg xmlns="http://www.w3.org/2000/svg" width="27" height="28" viewBox="0 0 27 28">
    <g fill="none" fill-rule="nonzero">
        <path fill="#FFF" d="M25.002.4H1.992C.893.4 0 1.272 0 2.347v23.105C0 26.527.893 27.4 1.992 27.4h23.01c1.101 0 1.998-.873 1.998-1.948V2.347C27 1.272 26.103.4 25.002.4z"/>
        <path fill="#204C67" d="M4 10.522h4.01v12.885H4V10.522zm2.006-6.405a2.323 2.323 0 1 1-.003 4.645 2.323 2.323 0 0 1 .003-4.645zM10.522 10.522h3.838v1.762h.055c.534-1.013 1.84-2.081 3.789-2.081 4.055 0 4.804 2.667 4.804 6.138v7.066h-4.004v-6.266c0-1.494-.026-3.416-2.081-3.416-2.084 0-2.402 1.628-2.402 3.31v6.372h-4V10.522z"/>
    </g>
</svg>
