<svg xmlns="http://www.w3.org/2000/svg" width="152" height="195"><g fill="none" fill-rule="evenodd" transform="translate(0 1)"><path fill="#F2F2F2" fill-rule="nonzero" d="M131.395 50.61c7.335 13.818-2.549 36.793-8.415 59.962-5.865 23.168-7.777 46.4-21.613 58.176-13.834 11.809-39.622 12.096-60.692 2.106S3.252 140.666.45 119.763c-2.804-20.904 7.873-42.454 22.537-57.92 14.663-15.464 33.237-24.89 54.86-27.252 21.623-2.362 46.187 2.233 53.55 16.02z"/><path fill="#5FC5D1" fill-rule="nonzero" d="M145.578 9.364L101 19V9.595L145.394 0 152 3.464z"/><path fill="#5FC5D1" fill-rule="nonzero" d="M102 9.668L56.924 0 51 3.408l5.408 5.814L102 19z"/><path fill="#6BD5E1" fill-rule="nonzero" d="M13.987 147c-.229 3.184-1.6 17.566-.663 22H54l-4.184-21.26-35.83-.74z"/><path fill="#FFC78E" fill-rule="nonzero" d="M39.836 98.55c5.138-3.462 17.6 10.37 18.164 14.48-1.258 2.099-10.125 8.301-13.389 7.956-3.45-2.81-9.734-19.096-4.775-22.435z"/><path stroke="#FFD98E" stroke-linecap="round" stroke-linejoin="round" stroke-width="11" d="M101 5v183"/><path fill="#FFD98E" fill-rule="nonzero" d="M28.674 93c29.28 0 24.786 47.965 22.912 56.173-7.458 4.17-31.354 3.588-38.267-.835C10.669 134.633 10.356 93 28.674 93z"/><path fill="#E49D75" fill-rule="nonzero" d="M6.62 118c-.797 2.714-3.55 24.197.67 27.44 4.22 3.242 19.87-8.54 22.663-10.968 2.793-2.429-.56-6.434-3.532-5.586-2.971.848-9.265 3.078-10.424 3.806 1.115-2.591 3.19-9.794 3.17-11.777C19.147 118.932 6.621 118 6.621 118z"/><path fill="#E0E0E0" fill-rule="nonzero" d="M89 141.867L31 158v-44.867L89 97z"/><path fill="#6BD5E1" fill-rule="nonzero" d="M102 19.379L57.358 29 51 25.635l4.598-5.633L102 10z"/><path fill="#6BD5E1" fill-rule="nonzero" d="M146.193 19.741L101 10v9.379L145.642 29 152 25.46z"/><circle cx="15.5" cy="62.5" r="11.5" fill="#000" fill-rule="nonzero"/><circle cx="32" cy="77" r="13" fill="#E49D75" fill-rule="nonzero"/><path fill="#000" fill-rule="nonzero" d="M23.353 87c8.52-6.653 10.41-17.2 10.647-22.897A13.96 13.96 0 0032.354 64c-5.513 0-10.458 3.356-12.45 8.447A13.143 13.143 0 0023.352 87z"/><path fill="#000" fill-rule="nonzero" d="M39.088 70c.977 0 1.953-.104 2.912-.31-3.197-4.805-8.83-6.836-14-5.049 2.845 3.419 6.87 5.364 11.088 5.359z"/><path fill="#E49D75" fill-rule="nonzero" d="M35 97.691c0 1.764-9 1.727-9 0V85h9v12.691z"/><path fill="#FFE4AD" fill-rule="nonzero" d="M17.018 98.046c6.16 1.042 5.756 19.483 3.332 22.813-2.373.646-13.155-.995-15.313-3.478-.592-4.375 6.039-20.343 11.981-19.335z"/><ellipse cx="31.5" cy="127.5" fill="#E49D75" fill-rule="nonzero" rx="5.5" ry="6.5"/><ellipse cx="87.5" cy="115" fill="#E49D75" fill-rule="nonzero" rx="3.5" ry="5"/></g></svg>