<svg xmlns="http://www.w3.org/2000/svg" width="139" height="170"><g fill="none" fill-rule="evenodd"><path stroke="#FD8369" stroke-linecap="round" stroke-width="4" d="M59 111l-13 48M63 111l13 48"/><path fill="#FD8369" fill-rule="nonzero" d="M54 112H29.194L0 43h24.806z"/><path stroke="#FD8369" stroke-linecap="round" stroke-width="4" d="M63 76v69M72 75v80"/><path fill="#DE8E68" fill-rule="nonzero" d="M83.288 153.806l3.266-.018.02 3.63-3.266.017z"/><path fill="#000" fill-rule="nonzero" d="M83 160.442l11.794.558.206-.997L86.862 157l-3.777.131z"/><path fill="#DE8E68" fill-rule="nonzero" d="M66.298 153.842l3.611 2.327-2.59 4.013-3.611-2.326z"/><path fill="#56CAD8" fill-rule="nonzero" d="M83 144.708V154h3.4s5.8-12.637 7.6-21M53 84.472C55.008 84.08 67.64 82 81.422 82c15.886 0 22.681 1.796 24.308 3.402 1.627 1.607-4.594 25.708-5.55 27.598"/><path fill="#74D5DE" fill-rule="nonzero" d="M25.174 81c-1.148 2.1-.83 2.482-1.148 9.545-1.147 25.58 35.577 21.572 60.252 28.444-6.312 19.663-19.128 34.172-19.128 35.126 0 .955 2.933 3.123 3.443 2.864 9.755-4.964 39.81-37.923 39.403-43.526-.765-10.5-50.114-29.017-56.617-29.017"/><path fill="#D9805A" fill-rule="nonzero" d="M64.64 53c5.665 4.773 8.91 15.04 9.291 15.04 13.932 0 27.29 3.614 28.245 3.614.954 0 2.862-1.331 3.626-1.331.763 0 4.198 1.52 4.198 2.281 0 .761-40.84.19-41.794.19C67.347 71.94 60 64.999 60 63.859"/><path stroke="#FD8369" stroke-linecap="round" stroke-width="4" d="M102 49l3 11"/><path fill="#FED07D" fill-rule="nonzero" d="M46.51 33.38c-3.81 3.044.372 25.106 3.898 26.468 3.527 1.362 15.405-6.811 15.59-9.73.186-2.92-15.59-19.851-19.487-16.737z"/><path fill="#FED385" fill-rule="nonzero" d="M24.55 74.601C28.972 55.568 43.967 28.076 47.236 25 53.964 25 63 40.188 63 49.224c0 10.19-9.41 34.47-11.343 35.759-3.46 2.307-22.3.576-27.299-4.038-.905-.834.192-6.344.192-6.344z"/><circle cx="48.5" cy="16.5" r="2.5" fill="#DE8E68" fill-rule="nonzero"/><path fill="#D9805A" fill-rule="nonzero" d="M46.976 27.584c-.148.509 5.964 1.783 6.422 1.314 0-.939 0-5.07.55-6.571.551-1.502-3.496-5.895-4.683-6.327-1.188 2.009-4.123-.807-3.022 2.009 1.1 2.816 1.834 5.82.733 9.575z"/><ellipse cx="52.5" cy="13.5" fill="#DE8E68" fill-rule="nonzero" rx="5.5" ry="10.5"/><path fill="#000" fill-rule="nonzero" d="M43.724 5.135C37.937 5.135 36.78 0 30.028 0c-5.595 0-7.592 3.71-10.032 5.515C17.681 7.227 9 9.32 9 18.638 9 25.104 14.016 31 19.61 31c6.945 0 13.697-8.558 21.028-8.558 3.086 0 2.508 1.14 6.173 1.14 1.35 0 1.35-.95 1.35-1.33 0-.38.58-1.142.58-1.902 0-2.283-1.93-1.332-1.93-4.375 0-1.33 1.35-2.23 2.7-2.23 1.351 0 7.139-4.806 7.139-8.23.385.38.964 2.092.964 2.283.193 0 .386-.951.386-1.332 0-3.803-3.858-4.754-5.209-4.754-3.086 0-4.437 3.423-9.067 3.423z"/><path fill="#FED892" fill-rule="nonzero" d="M45.51 36.38c-3.81 3.044.372 25.106 3.898 26.468 3.527 1.362 15.405-6.811 15.59-9.73.186-2.92-15.59-19.851-19.487-16.737z"/><path fill="#DE8E68" fill-rule="nonzero" d="M63.813 54.512c.581.752 4.067 5.453 4.067 5.453 1.937 0 8.909-.376 32.342-6.957.774-.188 2.6 2.992 1.355 3.76C97.317 59.402 68.267 72 61.877 72 60.327 72 52 62.034 52 60.718"/><circle cx="102.5" cy="54.5" r="2.5" fill="#DE8E68" fill-rule="nonzero"/><path d="M69.324 157c9.817-4.926 40.633-37.705 39.653-43.2C107.052 103 58.545 85 52 85"/><path fill="#000" fill-rule="nonzero" d="M62 160.617L75.041 170l.959-.957-7.096-9.383-4.399-2.66z"/><path fill="#FD8369" fill-rule="nonzero" d="M59 72h80v4H59z"/><path stroke="#FD8369" stroke-linecap="round" stroke-width="4" d="M125 76v69M135 75v80M37 111l-13 48"/></g></svg>