<svg xmlns="http://www.w3.org/2000/svg" width="147" height="182"><g fill="none" fill-rule="evenodd"><path fill="#F8F8F8" fill-rule="nonzero" d="M127.423 43.235c12.345 17.21 19.02 34.366 19.536 50.629.578 16.264-4.99 31.684-12.342 47.578-7.353 15.842-16.544 32.156-28.886 34.314-12.34 2.105-27.834-9.895-44.744-16.683-16.97-6.737-35.345-8.211-46.802-18.367C2.743 130.496-1.72 111.602.59 93.18c2.364-18.42 11.607-36.375 25.787-53.208C40.61 23.08 59.883 7.29 78.475 8.025c18.643.738 36.656 18 48.948 35.21z"/><path fill="#56CAD8" fill-rule="nonzero" d="M95.612 114.619C99.432 125.226 101 173.765 101 182H81.23L73 163.578 87.283 112l8.329 2.619z"/><path fill="#74D5DE" fill-rule="nonzero" d="M89 116.68c-1.073 7.016-10.619 59.754-12.75 65.32H47.852c-1.207-3.976-5.765-50.752 0-67.977S89 116.68 89 116.68z"/><path fill="#DE8E68" fill-rule="nonzero" d="M93.737 88c1.814-.359 26.493-11.661 32.083-16.472 5.59-4.81-1.088-8.526-3.194-7.288C120.52 65.48 98.6 74.954 94.099 76.34 89.597 77.723 93.737 88 93.737 88z"/><path fill="#DEDEDE" fill-rule="nonzero" d="M113.503 38.7l17.809-1.391 2.683 34.442-17.809 1.39z"/><path stroke="#000" stroke-linecap="round" stroke-linejoin="round" stroke-width="8" d="M106 45l9 19"/><ellipse cx="67.719" cy="24.056" fill="#DE8E68" fill-rule="nonzero" rx="9.237" ry="13.416" transform="rotate(-6.24 67.72 24.056)"/><path fill="#FED385" fill-rule="nonzero" d="M65.616 39c30.967 0 32.41 75.69 31.05 77.054-1.36 1.365-32.85 7.769-50.008.63C42.472 98.418 45.32 39 65.616 39z"/><path fill="#DE8E68" fill-rule="nonzero" d="M115 54.916c0-1.785-1.898-5.498-4.685-4.838-1.917.452-4.554 4.307-5.695 5.944-3.862 2.667-28.3 22.933-30.179 24.896-.078-1.637-1.645-4.913-3.527-7.943L55 83.293C56.647 87.88 66.915 100 70.914 100c10.498 0 31.724-28.599 37.102-36.27 2.514-1.752 6.986-5.252 6.984-8.814z"/><path fill="#FD8369" fill-rule="nonzero" d="M52 17.629c0-3.94 3.146-6.244 4.168-7.32 2.066-2.183 3.305-8.003 7.67-8.003 1.239 0 3.164.733 4.374.733C69.727 3.033 72.74 0 75.78 0 80.869 0 82 4.76 82 6.222c0 5.356-6.564 9.398-7.436 9.88-.37-.614-2.066-2.914-2.63-3.263-.675 1.432-5.234 3.814-8.679 5.948-1.93 1.196-3.144 10.48-3.115 11.213-3.218.01-8.14-4.95-8.14-12.371z"/><circle cx="59.5" cy="26.5" r="2.5" fill="#DE8E68" fill-rule="nonzero"/><path fill="#DE8E68" fill-rule="nonzero" d="M69.996 44.185c.209 1.294-7.996.966-8.092-.413L61 30.802 68.43 30s1.37 12.895 1.566 14.185z"/><path fill="#FED892" fill-rule="nonzero" d="M49.161 51.106c-9.27 5.04-.982 31.214 4.874 33.894C60.65 85 74 75.442 74 72.215c0-3.226-12.813-27.642-24.839-21.11z"/><path fill="#DE8E68" fill-rule="nonzero" d="M127 52.268c0 4.407 4.826 6.732 5.529 6.732C134 59 134 54.177 134 52.929c0-2.846-2.557-4.929-4.5-4.929-1.942 0-2.5 1.771-2.5 4.268z"/></g></svg>