<svg xmlns="http://www.w3.org/2000/svg" width="157" height="198"><g fill="none" fill-rule="evenodd" transform="translate(0 16)"><path fill="#F1F1F1" fill-rule="nonzero" d="M131.974 45.223c14.112 12.684 19.318 37.409 13.96 59.275-5.395 21.867-21.32 40.88-43.092 53.555-21.77 12.645-49.347 19.007-67.764 9.071-18.416-9.935-27.578-36.093-32.22-61.76-4.604-25.667-4.678-50.808 7.584-63.078 12.262-12.229 36.832-11.627 60.633-11.025 23.81.639 46.824 1.28 60.899 13.962z"/><path fill="#E49D75" fill-rule="nonzero" d="M116 174h5v4h-5zM139.533 171.059l3.339-2.693 2.39 2.954-3.34 2.692z"/><rect width="4" height="5" x="121" y="49" fill="#E49D75" fill-rule="nonzero" rx="2"/><path fill="#5FC5D1" fill-rule="nonzero" d="M124.608 114.185c.61 1.415 5.28 29.81 5.967 32.497.686 2.686 11.667 20.197 12.414 21.244.23 1.513-3.162 4.074-4.77 4.074-1.609-1.288-20.393-28.854-20.844-30.078-.45-1.224-1.964-30.51 7.233-27.737z"/><path fill="#6BD5E1" fill-rule="nonzero" d="M105.01 109.07c-.211 1.181 2.934 28.198 3.324 31.826.39 3.629 6.416 32.86 6.949 33.59.533.73 4.589.572 5.29.207.7-.365-1.369-30.48-1.369-32.663 0-2.183 5.432-22.32 4.734-28.153-.698-5.832-18.928-4.808-18.928-4.808z"/><path fill="#E49D75" fill-rule="nonzero" d="M116 77h5v7h-5z"/><rect width="79" height="78" x="20" y="26" fill="#E0E0E0" fill-rule="nonzero" rx="22.42"/><path fill="#A4A4A4" fill-rule="nonzero" d="M63.413 60.507a7.16 7.16 0 001.857-7.918C64.184 49.822 61.497 48 58.503 48s-5.68 1.822-6.767 4.589a7.16 7.16 0 001.858 7.918L48 83h21l-5.587-22.493z"/><path stroke="#E0E0E0" stroke-linecap="round" stroke-linejoin="round" stroke-width="32" d="M34 25c.124-13.844 11.28-25 25-25s24.876 11.156 25 25"/><ellipse cx="118" cy="70" fill="#E49D75" fill-rule="nonzero" rx="6" ry="8"/><path fill="#FFD98E" fill-rule="nonzero" d="M116.737 83c-7.314 0-13.834 19.968-12.582 26.594.37 1.957 17.874 5.906 20.55 5.353.95-1.273 4.83-31.947-7.968-31.947z"/><path fill="#FFE4AD" fill-rule="nonzero" d="M114.932 93.603c3.295-2.46-1.972-14.376-3.202-14.58-2.267-.377-7.904 4.09-7.726 5.969.094.99 7.573 11.115 10.928 8.611z"/><path fill="#E49D75" fill-rule="nonzero" d="M105.572 84c-.875-1.04-3.063-6.127-3.302-7.334-.24-1.207-.825-19.35-.825-20.424 0-1.074-1.445-3.785-1.445-5.402 0-1.618 1.663-3.811 2.51-3.84.903.635 2.158 4.36 2.216 5.31.315-2.042 1.81-2.512 2.218-2.512.409 0 .355 3.156-1.337 5.28.06 1.56 2.063 17.015 2.387 17.91.324.894 4.014 6.758 4.006 7.276-.008.52-6.428 3.736-6.428 3.736z"/><path fill="#A4A4A4" fill-rule="nonzero" d="M76.72 45.321l73.49 10.026-.286 2.097-73.49-10.026z"/><path fill="#A4A4A4" fill-rule="nonzero" d="M76.434 47.416l4.493.614-.83 6.072-4.495-.613zM82.839 48.291l2.417.33-.831 6.072-2.418-.33z"/><path fill="#E49D75" fill-rule="nonzero" d="M124.774 66c-.165-1-.315-8.243-.06-9.265.256-1.023.946-1.77 1.255-3.296.105-.525-.062-2.343-.4-2.419-.725-.164-.767.696-.862 1.329-.371 2.157-1.127 1.763-1.476 1.712-.348-.05-1.546-.27-1.94-.28-.392-.01.609.843.304 2.207-.24 1.074-1.364 8.224-1.595 9.394.84.036 4.774.618 4.774.618z"/><path fill="#A4A4A4" fill-rule="nonzero" d="M86.964 48.852l2.418.33-.831 6.072-2.418-.33z"/><path fill="#A4A4A4" fill-rule="nonzero" d="M76.433 47.417l12.947 1.766-.294 2.152-12.947-1.766zM152.242 51.051a5.5 5.5 0 10-1.484 10.899 5.5 5.5 0 001.484-10.899zm2.966 5.955a3.744 3.744 0 11-7.42-1.014 3.744 3.744 0 017.42 1.014z"/><path fill="#E49D75" fill-rule="nonzero" d="M106 54.974c-.243-1.045-.715-1.958-.792-2.744v.024c-.051-.942-1.169-4.628-1.974-5.254-.753.028-2.234 2.199-2.234 3.799 0 1.174.698 2.93 1.07 4.201h3.923l.007-.026z"/><path fill="#000" fill-rule="nonzero" d="M112 64.144c0 2.778 1.897 4.491 4.904 5.447 0 3.801.568 3.968.568 6.283 0 4.988-.823 2.494-.823 11.107 0 5.193 2.104 8.019 5.978 8.019 4.685 0 7.373-5.122 7.373-7.881 0-3.501-3.352-9.585-3.587-14.637-.325-6.796-2.37-12.482-7.496-12.482-4.38 0-6.917 1.685-6.917 4.144z"/><circle cx="118" cy="71" r="2" fill="#E49D75" fill-rule="nonzero"/><path fill="#000" fill-rule="nonzero" d="M145.295 171l2.705 3.461-5.659 7.507L137 182l.069-2.538 2.145-.889 1.906-4.41zM121 177v5h-15v-2.214l9.897-2.786H121"/></g></svg>