<svg xmlns="http://www.w3.org/2000/svg" viewBox="0 0 152.54 36.99"><defs><style>.cls-1{fill:#f1c232;}.cls-2{fill:#394662;}</style></defs><title>Accel_Logo_Orion</title><g id="Layer_2" data-name="Layer 2"><g id="Web"><path class="cls-1" d="M36.28,16.55l-7.77-2.06,4-7.1a.94.94,0,0,0-.16-1.13l-1.59-1.6a1,1,0,0,0-1.14-.15l-6.95,4L20.51.69A1,1,0,0,0,19.6,0H17.34a.94.94,0,0,0-.91.7l-2.12,8-7.1-4a.94.94,0,0,0-1.13.15l-1.6,1.6a1,1,0,0,0-.15,1.14l4.06,7L.69,16.68a1,1,0,0,0-.69.91v2.26a.94.94,0,0,0,.7.91l7.8,2.06-3.93,7a1,1,0,0,0,.15,1.14L6.31,32.5a.94.94,0,0,0,1.15.15l7-4,2.13,7.69a1,1,0,0,0,.91.7h2.26a.94.94,0,0,0,.91-.71l2-7.56,7,3.93a1,1,0,0,0,1.14-.15l1.59-1.6a.92.92,0,0,0,.15-1.14l-4-7,7.86-2.18a1,1,0,0,0,.7-.91V17.46A.94.94,0,0,0,36.28,16.55Zm-9.94,3.8a.33.33,0,0,0-.26.33v1l-.82.81a.33.33,0,0,0,0,.42l4.84,7.21-7.31-4.75a.33.33,0,0,0-.41.05l-.62.62H20.65a.34.34,0,0,0-.33.27l-1.67,8.52-1.81-8.53a.33.33,0,0,0-.33-.26H15.32l-.64-.64a.33.33,0,0,0-.42,0L7.05,30.24l4.75-7.31a.32.32,0,0,0,0-.41l-.85-.85v-.9a.32.32,0,0,0-.27-.32L2.12,18.77,10.65,17a.33.33,0,0,0,.26-.32v-1.2l.63-.64a.32.32,0,0,0,0-.42L6.74,7.17l7.31,4.75a.33.33,0,0,0,.42,0l1-1h1a.32.32,0,0,0,.32-.27l1.68-8.52,1.81,8.53a.33.33,0,0,0,.32.26H21.6l.81.81a.32.32,0,0,0,.42,0L30,6.92l-4.75,7.31a.35.35,0,0,0,.05.42l.74.74v1.15a.34.34,0,0,0,.27.33l8.52,1.67Z"/><path class="cls-2" d="M71.94,18.49A11.16,11.16,0,1,1,60.79,7.56,10.87,10.87,0,0,1,71.94,18.49Zm-5.3,0a5.86,5.86,0,1,0-11.71,0,5.86,5.86,0,1,0,11.71,0Z"/><path class="cls-2" d="M89.07,29l-4-6.1h-4V29H75.84V8H85c5.23,0,8.73,2.85,8.73,7.4a7,7,0,0,1-3.56,6.29l5,7.37Zm-8-10.81H85c2,0,3.59-1.11,3.59-2.85S87,12.58,85,12.58H81.08Z"/><path class="cls-2" d="M103.07,8V29H97.83V8Z"/><path class="cls-2" d="M129.27,18.49A11.15,11.15,0,1,1,118.12,7.56,10.87,10.87,0,0,1,129.27,18.49Zm-5.29,0a5.86,5.86,0,1,0-11.71,0,5.86,5.86,0,1,0,11.71,0Z"/><path class="cls-2" d="M152.54,8V29h-4l-10.1-11.55V29h-5.23V8h4l10.16,11.86V8Z"/></g></g></svg>